<?xml version="1.0" standalone="no"?>
<!DOCTYPE svg PUBLIC "-//W3C//DTD SVG 20010904//EN"
 "http://www.w3.org/TR/2001/REC-SVG-20010904/DTD/svg10.dtd">
<svg version="1.0" xmlns="http://www.w3.org/2000/svg"
 width="974.000000pt" height="235.000000pt" viewBox="0 0 974.000000 235.000000"
 preserveAspectRatio="xMidYMid meet">
<metadata>
Created by potrace 1.15, written by Peter Selinger 2001-2017
</metadata>
<g transform="translate(0.000000,235.000000) scale(0.100000,-0.100000)"
fill="#000000" stroke="none">
<path d="M1360 2015 c-344 -96 -1101 -302 -1140 -310 -86 -18 -163 -85 -176
-150 -9 -51 1 -109 24 -142 16 -23 494 -363 537 -383 6 -3 191 -129 410 -281
220 -152 414 -283 432 -292 39 -21 131 -22 176 -4 47 20 98 67 114 104 8 21
19 121 28 261 51 798 65 1023 65 1073 0 109 -85 190 -196 188 -27 -1 -150 -30
-274 -64z"/>
<path d="M2380 1270 l0 -540 115 0 115 0 0 540 0 540 -115 0 -115 0 0 -540z"/>
<path d="M5453 1780 c-122 -74 -76 -250 65 -250 85 0 136 50 136 133 0 104
-114 171 -201 117z"/>
<path d="M9430 1780 c-56 -34 -74 -66 -78 -140 -4 -75 16 -116 70 -151 44 -27
150 -24 190 6 47 35 71 90 66 151 -8 92 -63 146 -155 151 -46 3 -66 -1 -93
-17z"/>
<path d="M2983 1471 c-148 -55 -247 -183 -260 -338 -14 -168 74 -320 225 -391
51 -24 69 -27 167 -27 100 0 115 3 166 28 120 59 196 158 220 290 32 171 -58
346 -216 422 -80 38 -221 46 -302 16z m179 -223 c55 -16 105 -75 113 -132 14
-92 -64 -185 -154 -186 -108 0 -195 113 -162 212 19 56 92 114 150 117 7 1 31
-4 53 -11z"/>
<path d="M3859 1477 c-104 -29 -190 -104 -238 -206 -23 -49 -26 -68 -26 -161
0 -96 3 -110 29 -163 35 -68 118 -150 183 -180 39 -18 66 -22 149 -22 96 0
103 1 152 32 l52 32 0 -46 c0 -93 -60 -147 -163 -144 -67 1 -105 18 -139 61
l-25 31 -96 -56 -97 -57 17 -30 c25 -42 88 -92 159 -125 53 -25 70 -28 164
-28 169 1 279 48 347 149 55 81 56 90 60 514 l4 392 -115 0 -116 0 0 -32 0
-31 -22 20 c-61 55 -183 77 -279 50z m215 -211 c112 -66 116 -220 7 -293 -75
-50 -199 -16 -241 67 -77 152 88 312 234 226z"/>
<path d="M4773 1476 c-331 -108 -366 -575 -55 -728 63 -31 72 -33 177 -33 100
0 115 3 166 28 88 43 143 98 186 185 36 72 38 81 38 172 0 91 -2 100 -38 172
-43 87 -98 142 -185 185 -48 23 -71 28 -152 30 -61 2 -110 -2 -137 -11z m169
-226 c46 -13 105 -77 114 -125 15 -80 -36 -162 -113 -185 -57 -17 -107 -5
-154 37 -68 62 -75 153 -15 221 50 56 97 71 168 52z"/>
<path d="M6117 1475 c-21 -8 -51 -24 -67 -35 l-30 -21 0 25 0 26 -115 0 -115
0 0 -520 0 -520 115 0 115 0 0 177 c0 168 1 175 18 160 64 -59 204 -75 308
-36 198 74 293 309 212 526 -21 58 -92 143 -148 178 -81 51 -213 69 -293 40z
m130 -226 c116 -44 144 -212 47 -288 -63 -49 -151 -47 -214 5 -42 36 -60 74
-60 129 0 118 115 197 227 154z"/>
<path d="M6865 1481 c-85 -24 -147 -72 -176 -136 -25 -54 -25 -145 0 -193 35
-69 75 -94 224 -142 52 -17 100 -37 108 -46 20 -24 -12 -49 -66 -49 -55 0 -91
24 -122 83 -1 2 -47 -22 -102 -53 -92 -52 -100 -59 -90 -77 26 -48 92 -107
150 -133 52 -23 74 -27 151 -26 212 1 318 82 318 245 0 124 -52 182 -207 230
-122 38 -141 46 -147 62 -3 8 5 21 19 30 33 21 78 10 109 -27 l25 -29 95 52
c53 28 96 55 96 60 0 22 -95 108 -143 129 -56 24 -187 35 -242 20z"/>
<path d="M8530 1469 c-24 -11 -53 -27 -62 -36 -17 -15 -18 -14 -18 10 l0 27
-115 0 -115 0 0 -370 0 -370 114 0 115 0 3 238 c3 211 5 240 22 264 25 38 84
55 126 38 56 -23 60 -44 60 -305 l0 -235 115 0 115 0 0 223 c0 196 3 227 19
264 16 34 27 44 60 54 32 9 46 9 71 -1 56 -23 60 -44 60 -305 l0 -235 115 0
115 0 0 258 c0 288 -6 330 -63 404 -87 114 -292 133 -402 37 l-32 -28 -24 26
c-59 63 -189 83 -279 42z"/>
<path d="M5400 1100 l0 -370 115 0 115 0 0 370 0 370 -115 0 -115 0 0 -370z"/>
<path d="M7360 1200 c0 -247 2 -274 21 -324 24 -65 96 -136 157 -154 93 -28
227 -7 284 45 17 15 18 14 18 -10 l0 -27 115 0 115 0 0 370 0 370 -115 0 -115
0 0 -220 c0 -235 -5 -265 -50 -305 -17 -15 -36 -20 -82 -20 -55 0 -62 3 -89
33 l-29 32 0 240 0 240 -115 0 -115 0 0 -270z"/>
</g>
</svg>
